<?xml version="1.0" encoding="UTF-8"?>
<svg xmlns="http://www.w3.org/2000/svg" viewBox="0 0 16 16" fill="#00003A">
  <path d="M16,3a6,6,0,0,1-1.87.54,3.57,3.57,0,0,0,1.47-1.8,6.18,6.18,0,0,1-2.07.8,3.21,3.21,0,0,0-2.4-1.07A3.27,3.27,0,0,0,7.87,4.77a2.77,2.77,0,0,0,.06.73A9.2,9.2,0,0,1,1.13,2,3.06,3.06,0,0,0,.67,3.7,3.36,3.36,0,0,0,2.13,6.43,2.65,2.65,0,0,1,.67,6V6.1a3.23,3.23,0,0,0,2.6,3.2,3.31,3.31,0,0,1-.87.13,2,2,0,0,1-.6-.06,3.16,3.16,0,0,0,3.07,2.26A6.68,6.68,0,0,1,.8,13,3.6,3.6,0,0,1,0,13a9.36,9.36,0,0,0,5,1.46A9.24,9.24,0,0,0,14.33,5.1V4.7A8,8,0,0,0,16,3Z" />
</svg>
