<?xml version="1.0" encoding="UTF-8"?>
<svg xmlns="http://www.w3.org/2000/svg" viewBox="0 0 16 16" fill="#00003A">
  <path d="M11.23,0A4.78,4.78,0,0,1,16,4.77v6.46A4.78,4.78,0,0,1,11.23,16H4.77A4.78,4.78,0,0,1,0,11.23V4.77A4.78,4.78,0,0,1,4.77,0ZM14.4,11.23V4.77A3.18,3.18,0,0,0,11.23,1.6H4.77A3.18,3.18,0,0,0,1.6,4.77v6.46A3.18,3.18,0,0,0,4.77,14.4h6.46a3.18,3.18,0,0,0,3.17-3.17ZM8,3.86A4.14,4.14,0,1,1,3.86,8,4.16,4.16,0,0,1,8,3.86Zm0,6.67A2.53,2.53,0,0,0,10.53,8,2.53,2.53,0,1,0,8,10.53Zm4.15-5.64a1,1,0,1,1,1-1A1,1,0,0,1,12.15,4.89Z" />
</svg>
