<?xml version="1.0" encoding="UTF-8"?>
<svg xmlns="http://www.w3.org/2000/svg" viewBox="0 0 16 16" fill="#00003A">
  <path d="M7.81,0a8,8,0,1,0,5.66,2.34A8,8,0,0,0,7.81,0Zm6.81,7.86a14.45,14.45,0,0,0-4.73-.15c-.17-.43-.35-.84-.54-1.24a8.92,8.92,0,0,0,3.84-2.66A6.83,6.83,0,0,1,14.62,7.86ZM8.77,5.3A27.69,27.69,0,0,0,6.3,1.36a6.8,6.8,0,0,1,6,1.52A8,8,0,0,1,8.77,5.3Zm-1.34.46a23.39,23.39,0,0,1-6.28.82A6.83,6.83,0,0,1,4.9,1.84,28.46,28.46,0,0,1,7.43,5.76ZM1,7.83a25.58,25.58,0,0,0,7-.91c.18.36.34.72.5,1.09l-.43.14a11.23,11.23,0,0,0-5.4,4.33A6.78,6.78,0,0,1,1,8ZM9,9.2a29.72,29.72,0,0,1,1.47,5.07,6.84,6.84,0,0,1-6.88-.91A10,10,0,0,1,9,9.2Zm1.36-.29a13.5,13.5,0,0,1,4.16.16,6.82,6.82,0,0,1-2.84,4.52A29.32,29.32,0,0,0,10.37,8.91Z" />
</svg>
