<?xml version="1.0" encoding="UTF-8"?>
<svg xmlns="http://www.w3.org/2000/svg" viewBox="0 0 16 16" fill="#00003A">
  <path d="M8.57,0C4.2,0,2,3.13,2,5.74A3.56,3.56,0,0,0,3.88,9.26a.3.3,0,0,0,.29,0A.31.31,0,0,0,4.34,9c0-.16.15-.57.19-.74a.45.45,0,0,0-.13-.51A2.64,2.64,0,0,1,3.79,6,4.35,4.35,0,0,1,8.32,1.57c2.46,0,3.82,1.51,3.82,3.52C12.14,7.74,11,10,9.23,10A1.43,1.43,0,0,1,7.76,8.21,20.5,20.5,0,0,0,8.57,5,1.23,1.23,0,0,0,7.33,3.57c-1,0-1.77,1-1.77,2.38A3.48,3.48,0,0,0,5.85,7.4l-1.17,5a10.14,10.14,0,0,0,0,3.49s0,.08.09.1A.12.12,0,0,0,4.87,16a9.83,9.83,0,0,0,1.66-3c.11-.41.64-2.52.64-2.52a2.64,2.64,0,0,0,2.24,1.14c2.95,0,5-2.69,5-6.29C14.39,2.54,12.08,0,8.57,0Z" />
</svg>
